<svg xmlns="http://www.w3.org/2000/svg" width="512" height="512" viewBox="0 0 512 512">
  <rect width="512" height="512" rx="108" fill="#91dcff"/>
  <circle cx="410" cy="88" r="46" fill="#fff5a8"/>
  <path d="M68 362 C120 296 202 286 282 304 C342 318 388 340 444 322 L444 430 L68 430 Z" fill="#63c96d"/>
  <path d="M112 302 C92 244 116 198 168 186 C214 174 270 194 292 240 C330 230 382 236 408 274 C430 306 410 354 366 360 L174 360 C144 360 122 340 112 302Z" fill="#6fd17f"/>
  <path d="M288 236 C310 188 356 160 394 172 C434 184 448 232 420 266 C392 300 336 292 288 236Z" fill="#6fd17f"/>
  <path d="M128 308 C76 300 54 266 52 230 C92 262 130 276 166 284Z" fill="#3c9b63"/>
  <ellipse cx="238" cy="298" rx="72" ry="36" fill="#ffe49a"/>
  <circle cx="374" cy="220" r="13" fill="#24343b"/>
  <circle cx="379" cy="215" r="4" fill="#fff"/>
  <path d="M366 250 Q386 270 408 250" fill="none" stroke="#24343b" stroke-width="12" stroke-linecap="round"/>
  <path d="M170 354 L156 414 M260 356 L248 414" stroke="#3c9b63" stroke-width="34" stroke-linecap="round"/>
  <path d="M150 176 L176 126 L202 178 M220 186 L252 130 L280 196" fill="#ff8fa3"/>
</svg>
